<svg width="47" height="58" viewBox="0 0 47 58" fill="none" xmlns="http://www.w3.org/2000/svg">
<path d="M1 1C24.0481 5.23332 39.6119 28.8776 39.6119 51.8052" stroke="#707070" stroke-linecap="round" stroke-linejoin="round"/>
<path d="M31.4019 49.846C34.0455 51.4322 37.0193 53.4059 38.955 55.8256C39.2982 56.2546 40.0589 56.4187 40.4236 56.8746C41.0326 57.6358 42.8181 53.9239 43.1978 53.4128C43.8124 52.5853 44.0833 51.6998 44.6198 50.8951" stroke="#707070" stroke-linecap="round" stroke-linejoin="round"/>
<path d="M44.4465 51.1131C44.4547 50.7522 44.7048 50.3641 44.9302 50.0919C45.0852 49.9048 45.2134 49.7081 45.3427 49.5061C45.4477 49.3421 45.5601 49.1899 45.68 49.0385C45.715 48.9943 45.654 49.2255 45.6316 49.2615C45.5605 49.376 45.474 49.4782 45.4005 49.5907C45.3014 49.7423 45.2446 49.9329 45.1345 50.0731C45.0234 50.2144 44.8528 50.3012 44.7502 50.4466C44.6445 50.5963 44.5622 50.7578 44.4586 50.9075C44.3128 51.1181 44.3009 51.404 44.1562 51.621" stroke="#707070" stroke-linecap="round" stroke-linejoin="round"/>
</svg>
